# xmcd CD database file
#
# Track frame offsets:
#	180
#	14004
#	26338
#	40555
#	55285
#	66936
#	77653
#	91198
#	103568
#	117137
#	130797
#	143482
#
# Disc length: 2057 seconds
#
# Revision: 1
# Processed by: cddbd v1.5.1PL0 Copyright (c) Steve Scherf et al.
# Submitted via: CDex 1.51
#
DISCID=8f08070c
DTITLE=Cachao - Descargas Cachao Y Su Ritmo Caliente
DYEAR=1900
DGENRE=Jazz
TTITLE0=Descarga Cubana
TTITLE1=Cogele El Golpe
TTITLE2=Trombon Criollo
TTITLE3=Malanga Amarilla
TTITLE4=Pamparana
TTITLE5=Estudio En Trompeta
TTITLE6=Goza Mi Trompeta
TTITLE7=Oye Mi Tres Montuno
TTITLE8=Controversia De Metales
TTITLE9=A Gozar Timbero
TTITLE10=Sorpresa De Flauta
TTITLE11=Guajeo De Sazos
EXTD=
EXTT0=
EXTT1=
EXTT2=
EXTT3=
EXTT4=
EXTT5=
EXTT6=
EXTT7=
EXTT8=
EXTT9=
EXTT10=
EXTT11=
PLAYORDER=
